<svg xmlns="http://www.w3.org/2000/svg" width="137.603" height="34.143" viewBox="0 0 137.603 34.143">
  <g id="Group_251" data-name="Group 251" transform="translate(-120.129 -114.284)">
    <g id="Group_249" data-name="Group 249" transform="translate(120.129 114.284)">
      <path id="Path_332" data-name="Path 332" d="M153.784,127.157a1.229,1.229,0,0,0-.024-.123,17.1,17.1,0,1,0-17.969,21.376l.077.006.117.01s0,0,.007,0l.1,0a2.878,2.878,0,1,0,0-5.756l-.091,0a.024.024,0,0,0-.016-.009,11.37,11.37,0,0,1-9.852-13.8,11.147,11.147,0,0,1,8.235-8.5,11.381,11.381,0,0,1,13.843,8.157.023.023,0,0,0,.011.014,2.878,2.878,0,1,0,5.558-1.384Z" transform="translate(-120.129 -114.284)" fill="#2ec39b"/>
      <rect id="Rectangle_89" data-name="Rectangle 89" width="6.103" height="12.345" rx="3.052" transform="translate(14.251 11.271)" fill="#2ec39b"/>
      <path id="Path_333" data-name="Path 333" d="M228.429,205.4a3.052,3.052,0,0,0-3.052,3.052v6.242a3.052,3.052,0,1,0,6.1,0v-6.242A3.052,3.052,0,0,0,228.429,205.4Z" transform="translate(-201.149 -184.423)" fill="#408eff"/>
    </g>
    <g id="Group_250" data-name="Group 250" transform="translate(159.775 121.144)">
      <path id="Path_334" data-name="Path 334" d="M308.863,154.128h-.1a2.852,2.852,0,0,1-2.2-.981,5.566,5.566,0,0,0-4.458-1.9c-3.793,0-6.541,2.693-6.541,6.9s2.748,6.926,6.541,6.926a5.718,5.718,0,0,0,5.974-4.624.559.559,0,0,0-.547-.68h-5.18a1.319,1.319,0,0,1-1.319-1.319h0a1.182,1.182,0,0,1,1.182-1.182h6.9a2.446,2.446,0,0,1,2.446,2.446h0a9.418,9.418,0,0,1-9.455,8.191,9.757,9.757,0,0,1,0-19.515,9.331,9.331,0,0,1,7.8,3.742A1.273,1.273,0,0,1,308.863,154.128Z" transform="translate(-292.352 -147.395)" fill="#231f20"/>
      <path id="Path_335" data-name="Path 335" d="M392.2,181.216c-4.343,0-7.558-3.078-7.558-7.833s3.078-7.806,7.558-7.806a7.063,7.063,0,0,1,7.366,7.448h0a1.544,1.544,0,0,1-1.54,1.539H387.886a4.166,4.166,0,0,0,4.315,4.013,3.739,3.739,0,0,0,3.032-1.276,2.34,2.34,0,0,1,1.79-.84h0a1.3,1.3,0,0,1,1.04,2.083A7.135,7.135,0,0,1,392.2,181.216Zm-4.288-9.18H396.3a3.933,3.933,0,0,0-4.233-3.82A4.124,4.124,0,0,0,387.914,172.036Z" transform="translate(-363.397 -160.63)" fill="#231f20"/>
      <path id="Path_336" data-name="Path 336" d="M459.02,156.617h-1.787V154.06h1.787v-2.119a1.647,1.647,0,0,1,1.647-1.647h0a1.514,1.514,0,0,1,1.514,1.514v2.251h3.683v2.556H462.18V165c0,1.127.44,1.594,1.759,1.594h1.924V169.2H463.39c-2.694,0-4.37-1.127-4.37-4.205Z" transform="translate(-419.277 -148.866)" fill="#231f20"/>
      <path id="Path_337" data-name="Path 337" d="M515.669,149.033c4.013,0,7.118,3.078,7.118,7.751s-3.133,7.888-7.118,7.888a6.436,6.436,0,0,1-5.277-2.446v.685a1.514,1.514,0,0,1-1.514,1.514h0a1.619,1.619,0,0,1-1.619-1.619V145.6a1.511,1.511,0,0,1,1.511-1.511h0a1.622,1.622,0,0,1,1.622,1.622v5.826A6.475,6.475,0,0,1,515.669,149.033Zm-.687,2.721c-2.336,0-4.59,1.842-4.59,5.085,0,3.27,2.254,5.112,4.59,5.112,2.363,0,4.617-1.9,4.617-5.167S517.346,151.754,514.983,151.754Z" transform="translate(-457.787 -144.086)" fill="#231f20"/>
      <path id="Path_338" data-name="Path 338" d="M590.816,165.577a6.446,6.446,0,0,1,5.25,2.446V167.5a1.677,1.677,0,0,1,1.677-1.677h0a1.484,1.484,0,0,1,1.484,1.484v12.134a1.526,1.526,0,0,1-1.526,1.526h0a1.635,1.635,0,0,1-1.635-1.635v-.619a6.518,6.518,0,0,1-5.3,2.5c-3.93,0-7.091-3.216-7.091-7.888S586.831,165.577,590.816,165.577Zm.66,2.721c-2.336,0-4.59,1.759-4.59,5.03s2.254,5.167,4.59,5.167c2.363,0,4.59-1.842,4.59-5.112C596.066,170.14,593.839,168.3,591.476,168.3Z" transform="translate(-516.608 -160.63)" fill="#231f20"/>
      <path id="Path_339" data-name="Path 339" d="M670.773,144.086h0a1.516,1.516,0,0,1,1.516,1.516v10.3l4.986-6.009a1.7,1.7,0,0,1,1.31-.615h0a1.554,1.554,0,0,1,1.144,2.607l-4.582,4.979L680,162.126a1.37,1.37,0,0,1-1.006,2.3h0a2.4,2.4,0,0,1-1.822-.835l-4.888-5.678V162.9a1.529,1.529,0,0,1-1.529,1.529h0a1.6,1.6,0,0,1-1.6-1.6V145.7A1.618,1.618,0,0,1,670.773,144.086Z" transform="translate(-582.414 -144.086)" fill="#231f20"/>
    </g>
  </g>
</svg>
