<?xml version="1.0" encoding="utf-8"?>
<!-- Generator: Adobe Illustrator 24.0.1, SVG Export Plug-In . SVG Version: 6.00 Build 0)  -->
<svg version="1.1" id="Outline" xmlns="http://www.w3.org/2000/svg" xmlns:xlink="http://www.w3.org/1999/xlink" x="0px" y="0px"
	 viewBox="0 0 24 24" style="enable-background:new 0 0 24 24;" xml:space="preserve">
<style type="text/css">
	.st0{fill:#2EC39B;}
</style>
<title>156 arrow up small</title>
<path class="st0" d="M6.3,10.9c0.4,0.4,1,0.4,1.4,0L11,7.6L11,18c0,0.6,0.4,1,1,1s1-0.4,1-1l0-10.4l3.3,3.3c0.4,0.4,1,0.4,1.4,0
	s0.4-1,0-1.4c0,0,0,0,0,0l-3.6-3.6c-1.2-1.2-3.1-1.2-4.2,0c0,0,0,0,0,0L6.3,9.5C5.9,9.9,5.9,10.5,6.3,10.9z"/>
</svg>
