<?xml version="1.0" encoding="utf-8"?>
<!-- Generator: Adobe Illustrator 24.0.1, SVG Export Plug-In . SVG Version: 6.00 Build 0)  -->
<svg version="1.1" id="Outline" xmlns="http://www.w3.org/2000/svg" xmlns:xlink="http://www.w3.org/1999/xlink" x="0px" y="0px"
	 viewBox="0 0 24 24" style="enable-background:new 0 0 24 24;" xml:space="preserve">
<style type="text/css">
	.st0{fill:#E01E1E;}
</style>
<title>157 arrow down small</title>
<path class="st0" d="M17.7,13.1c-0.4-0.4-1-0.4-1.4,0L13,16.4L13,6c0-0.6-0.4-1-1-1s-1,0.4-1,1l0,10.4l-3.3-3.3
	c-0.4-0.4-1-0.4-1.4,0c-0.4,0.4-0.4,1,0,1.4c0,0,0,0,0,0l3.6,3.6c1.2,1.2,3.1,1.2,4.2,0c0,0,0,0,0,0l3.6-3.6
	C18.1,14.1,18.1,13.5,17.7,13.1z"/>
</svg>
