<svg id="checkbox_active" data-name="Checkbox Active" xmlns="http://www.w3.org/2000/svg" width="19.324" height="17" viewBox="0 0 19.324 17">
    <rect id="Rectangle_65" data-name="Rectangle 65" width="19" height="17" rx="4" transform="translate(0.324)" fill="#1abe78"></rect>
    <path id="fi-rr-square" d="M13.354,0H3.514A3.518,3.518,0,0,0,0,3.514v9.84a3.518,3.518,0,0,0,3.514,3.514h9.84a3.518,3.518,0,0,0,3.514-3.514V3.514A3.518,3.518,0,0,0,13.354,0Zm2.108,13.354a2.108,2.108,0,0,1-2.108,2.108H3.514a2.108,2.108,0,0,1-2.108-2.108V3.514A2.108,2.108,0,0,1,3.514,1.406h9.84a2.108,2.108,0,0,1,2.108,2.108Z" transform="translate(0 0.066)" fill="#fff"></path>
    <path id="Path_60" data-name="Path 60" d="M5.913,10.116,4.376,8.58a.392.392,0,0,0-.554,0h0a.392.392,0,0,0,0,.554L5.358,10.67a.784.784,0,0,0,1.109,0l3.627-3.627a.392.392,0,0,0,0-.554h0a.392.392,0,0,0-.554,0Z" transform="translate(1.476 -0.137)" fill="#fff" stroke="#fff" stroke-width="1"></path>
</svg>