<svg id="eye" xmlns="http://www.w3.org/2000/svg" width="17.47" height="17.47" viewBox="0 0 17.47 17.47">
  <path id="Vector" d="M5.212,2.606A2.606,2.606,0,1,1,2.606,0,2.6,2.6,0,0,1,5.212,2.606Z" transform="translate(6.129 6.129)" fill="none" stroke="#19be78" stroke-linecap="round" stroke-linejoin="round" stroke-width="1.5"/>
  <path id="Vector-2" data-name="Vector" d="M7.123,12.047c2.57,0,4.964-1.514,6.631-4.135a3.877,3.877,0,0,0,0-3.778C12.087,1.514,9.692,0,7.123,0S2.158,1.514.491,4.135a3.877,3.877,0,0,0,0,3.778C2.158,10.533,4.553,12.047,7.123,12.047Z" transform="translate(1.612 2.708)" fill="none" stroke="#292d32" stroke-linecap="round" stroke-linejoin="round" stroke-width="1.5"/>
  <path id="Vector-3" data-name="Vector" d="M0,0H17.47V17.47H0Z" transform="translate(17.47 17.47) rotate(180)" fill="none" opacity="0"/>
</svg>
